<svg enable-background="new 0 0 26.001 10.995" height="10.995" viewBox="0 0 26.001 10.995" width="26.001" xmlns="http://www.w3.org/2000/svg"><path d="m21.29.092h-.338c-2.515 0-3.764 1.37-4.116 1.852-.429-.616-1.882-1.86-3.828-1.86-.249 0-.335.008-.521.008-2.412 0-4.897 2.589-4.897 5.241v5.663c1.732-.042 2.699-1.094 2.699-2.315v-3.39c0-1.053 1.067-2.526 2.578-2.526s2.599 1.432 2.599 2.674c0 1.241.021 2.968.021 3.41 0 .947.785 2.125 2.699 2.125v-5.81c0-1.157 1.208-2.399 2.599-2.399 1.39 0 2.538 1.306 2.538 2.421 0 .631.04 2.104.04 3.579 0 1.473 1.49 2.23 2.639 2.23v-6.209c-.001-2.148-2.579-4.694-4.712-4.694zm-12.8-.092s-.806 0-3.465 0c-3.082 0-5.015 3.369-5.015 4.791s-.01 6.139-.01 6.139c2.084 0 2.688-1.39 2.688-2.274v-3.37c0-1.601 1.531-2.591 2.276-2.591.332 0 1.098-.01 1.44-.01 1.512 0 2.086-1.516 2.086-2.685z" fill="none"/></svg>